<svg width="50" height="50" viewBox="0 0 50 50" fill="none" xmlns="http://www.w3.org/2000/svg">
<path d="M40.9019 16.6603C40.929 17.0249 40.929 17.3874 40.929 17.7499C40.929 28.8436 32.4853 41.627 17.054 41.627C12.2998 41.627 7.88317 40.2499 4.1665 37.8582C4.8415 37.9353 5.4915 37.9624 6.19359 37.9624C9.97065 37.9715 13.6408 36.7085 16.6123 34.377C14.8611 34.3453 13.1635 33.7675 11.7566 32.7243C10.3496 31.6812 9.30355 30.2247 8.76442 28.5582C9.28317 28.6353 9.804 28.6874 10.3498 28.6874C11.1019 28.6874 11.8582 28.5832 12.5603 28.402C10.6598 28.0182 8.95082 26.9881 7.72404 25.4867C6.49726 23.9853 5.82836 22.1054 5.83109 20.1666V20.0624C6.94984 20.6853 8.24775 21.0749 9.62275 21.127C8.47086 20.3615 7.52634 19.3229 6.87346 18.1036C6.22059 16.8844 5.87966 15.5225 5.88109 14.1395C5.88109 12.5811 6.29567 11.152 7.02275 9.90614C9.13138 12.4999 11.7613 14.6219 14.7422 16.1346C17.7231 17.6473 20.9885 18.517 24.3269 18.6874C24.1978 18.0624 24.1186 17.4145 24.1186 16.7645C24.118 15.6623 24.3347 14.5708 24.7562 13.5525C25.1778 12.5341 25.7959 11.6088 26.5752 10.8294C27.3546 10.0501 28.2799 9.43199 29.2983 9.01047C30.3166 8.58894 31.4081 8.37226 32.5103 8.3728C34.9269 8.3728 37.1082 9.3853 38.6415 11.0228C40.5202 10.6595 42.3218 9.97368 43.9665 8.99572C43.3403 10.9349 42.0285 12.5793 40.2769 13.6207C41.9431 13.4307 43.5716 12.9925 45.1082 12.3207C43.9605 13.9938 42.5384 15.461 40.9019 16.6603Z" fill="#333333"/>
</svg>
