<svg width="20" height="20" viewBox="0 0 20 20" fill="none" xmlns="http://www.w3.org/2000/svg">
<path d="M12.55 3C12.3716 3.31956 12.2125 3.64959 12.0738 3.98829C10.7107 3.77271 9.3221 3.77271 7.95895 3.98829C7.82022 3.64959 7.66121 3.31956 7.48277 3C6.19871 3.2194 4.95043 3.61232 3.7722 4.16798C1.6653 7.20857 0.709802 10.9 1.07687 14.5809C2.44991 15.6131 3.99094 16.4004 5.63198 16.9079C6.00566 16.4143 6.33915 15.8915 6.62925 15.3446C6.09385 15.1472 5.57924 14.8974 5.09291 14.5989C5.2263 14.5102 5.35247 14.411 5.47026 14.3024C6.88842 14.9855 8.44228 15.3403 10.0164 15.3403C11.5905 15.3403 13.1444 14.9855 14.5625 14.3024C14.6883 14.4102 14.8141 14.5091 14.9399 14.5989C14.4509 14.8951 13.9368 15.1476 13.4035 15.3536C13.6816 15.9129 14.0062 16.4479 14.3738 16.9528C16.0128 16.447 17.5512 15.6596 18.92 14.6259C19.2958 10.9442 18.3396 7.2498 16.2246 4.2129C15.0596 3.64574 13.8237 3.23779 12.55 3V3ZM7.03355 12.4786C6.58396 12.4463 6.16435 12.2411 5.86281 11.9061C5.56127 11.571 5.40126 11.1322 5.41635 10.6817C5.39898 10.2306 5.55821 9.79051 5.8602 9.45497C6.16219 9.11942 6.58313 8.91488 7.03355 8.88481C7.48398 8.91488 7.90492 9.11942 8.20691 9.45497C8.5089 9.79051 8.66813 10.2306 8.65075 10.6817C8.66813 11.1328 8.5089 11.5729 8.20691 11.9084C7.90492 12.244 7.48398 12.4485 7.03355 12.4786V12.4786ZM12.9992 12.4786C12.5496 12.4463 12.13 12.2411 11.8285 11.9061C11.5269 11.571 11.3669 11.1322 11.382 10.6817C11.3646 10.2306 11.5239 9.79051 11.8259 9.45497C12.1279 9.11942 12.5488 8.91488 12.9992 8.88481C13.4505 8.91263 13.8728 9.11652 14.1752 9.45257C14.4777 9.78863 14.6361 10.23 14.6164 10.6817C14.6361 11.1334 14.4777 11.5748 14.1752 11.9108C13.8728 12.2469 13.4505 12.4508 12.9992 12.4786V12.4786Z" stroke="white"/>
</svg>
