<svg width="50" height="50" viewBox="0 0 50 50" fill="none" xmlns="http://www.w3.org/2000/svg">
<path d="M0.833336 45.7317H1.66667V36.065C1.66667 34.9605 2.5621 34.065 3.66667 34.065H9.66667C10.7712 34.065 11.6667 34.9605 11.6667 36.065V45.7317H14.1667V28.565C14.1667 27.4604 15.0621 26.565 16.1667 26.565H22.1667C23.2712 26.565 24.1667 27.4605 24.1667 28.565V45.7317H26.6667V21.8984C26.6667 20.7938 27.5621 19.8984 28.6667 19.8984H34.6667C35.7712 19.8984 36.6667 20.7938 36.6667 21.8984V45.7317H39.1667V15.2317C39.1667 14.1271 40.0621 13.2317 41.1667 13.2317H47.1667C48.2712 13.2317 49.1667 14.1271 49.1667 15.2317V45.7317C49.6267 45.7317 50 46.1042 50 46.565C50 47.0259 49.6267 47.3984 49.1667 47.3984H39.1667H36.6667H26.6667H24.1667H14.1667H11.6667H1.66667H0.833336C0.373337 47.3984 0 47.0259 0 46.565C0 46.1042 0.373337 45.7317 0.833336 45.7317ZM47.5 45.7317V14.8984H40.8333V45.7317H47.5ZM35 45.7317V21.565H28.3333V45.7317H35ZM22.5 45.7317V28.2317H15.8333V45.7317H22.5ZM10 45.7317V35.7317H3.33334V45.7317H10Z" fill="#303841"/>
</svg>
