<svg width="50" height="50" viewBox="0 0 50 50" fill="none" xmlns="http://www.w3.org/2000/svg">
<path d="M26.9817 44.45H22.8949C22.103 44.45 21.4586 43.8058 21.4586 43.0138V41.938C21.4586 41.146 22.1028 40.5016 22.8949 40.5016H26.9817C27.7736 40.5016 28.4179 41.1458 28.4179 41.938V42.0907H33.8689C36.9915 42.0907 39.5318 39.5503 39.5318 36.4278V33.9708C38.3998 33.7863 37.5331 32.8014 37.5331 31.618V23.6619C37.5331 22.4988 38.3705 21.5275 39.4739 21.3191V20.3066C39.4739 12.2915 32.9533 5.77097 24.9382 5.77097C16.9231 5.77097 10.4023 12.2915 10.4023 20.3066V21.3176C11.5104 21.5223 12.3522 22.4957 12.3522 23.6619V31.618C12.3522 32.9325 11.2827 34.002 9.96823 34.002C8.68264 34.002 7.63145 32.9791 7.58581 31.7045C6.0067 30.9675 5 29.3995 5 27.6396C5 25.8796 6.0067 24.3117 7.586 23.575C7.6276 22.4135 8.50411 21.4611 9.63215 21.301V20.3061C9.63215 11.8663 16.4984 5 24.9382 5C33.378 5 40.2445 11.8663 40.2445 20.3061V21.2997C41.3769 21.4559 42.2579 22.4102 42.2997 23.5748C43.879 24.3115 44.8857 25.8796 44.8857 27.6394C44.8857 29.3991 43.879 30.9671 42.2997 31.7039C42.2586 32.8485 41.4068 33.7903 40.3024 33.9704V36.4274C40.3024 39.9746 37.4166 42.8607 33.8691 42.8607H28.4179V43.0134C28.4179 43.8056 27.7736 44.45 26.9817 44.45ZM22.8949 41.272C22.5279 41.272 22.2289 41.5707 22.2289 41.938V43.0138C22.2289 43.3809 22.5277 43.6796 22.8949 43.6796H26.9817C27.3487 43.6796 27.6475 43.3809 27.6475 43.0138V41.938C27.6475 41.5709 27.3487 41.272 26.9817 41.272H22.8949ZM39.917 22.0479C39.0274 22.0479 38.3035 22.7717 38.3035 23.6615V31.6177C38.3035 32.5075 39.0274 33.2312 39.917 33.2312C40.8066 33.2312 41.5306 32.5075 41.5306 31.6177V23.6615C41.5306 22.7719 40.8066 22.0479 39.917 22.0479ZM9.96842 22.0479C9.07862 22.0479 8.35485 22.7717 8.35485 23.6615V31.6177C8.35485 32.5075 9.07862 33.2312 9.96842 33.2312C10.8582 33.2312 11.582 32.5075 11.582 31.6177V23.6615C11.582 22.7719 10.8582 22.0479 9.96842 22.0479ZM7.58446 24.4461C6.46624 25.1087 5.77039 26.3078 5.77039 27.6396C5.77039 28.9714 6.46624 30.1705 7.58446 30.833V24.4461ZM42.301 24.4461V30.8332C43.4192 30.1707 44.1151 28.9716 44.1151 27.6398C44.1151 26.308 43.419 25.1087 42.301 24.4461Z" fill="#303841" stroke="#303841" stroke-width="0.6"/>
</svg>
