<svg width="50" height="50" viewBox="0 0 50 50" fill="none" xmlns="http://www.w3.org/2000/svg">
<path d="M36.4583 25C41.6359 25 45.8333 29.1974 45.8333 34.375C45.8333 39.5527 41.6359 43.75 36.4583 43.75C31.9981 43.75 28.2654 40.6354 27.3165 36.4624H22.6834C21.7345 40.6354 18.0018 43.75 13.5416 43.75C8.36394 43.75 4.16661 39.5527 4.16661 34.375C4.16661 29.1974 8.36394 25 13.5416 25C18.3674 25 22.3416 28.6462 22.8595 33.334H27.1404C27.6583 28.6462 31.6325 25 36.4583 25ZM13.5416 28.125C10.0898 28.125 7.29161 30.9233 7.29161 34.375C7.29161 37.8268 10.0898 40.625 13.5416 40.625C16.9934 40.625 19.7916 37.8268 19.7916 34.375C19.7916 30.9233 16.9934 28.125 13.5416 28.125ZM36.4583 28.125C33.0065 28.125 30.2083 30.9233 30.2083 34.375C30.2083 37.8268 33.0065 40.625 36.4583 40.625C39.9101 40.625 42.7083 37.8268 42.7083 34.375C42.7083 30.9233 39.9101 28.125 36.4583 28.125ZM24.9999 19.2709C32.0611 19.2709 38.6043 19.9783 44.6287 21.3957C45.4687 21.5934 45.9894 22.4346 45.7917 23.2746C45.5941 24.1146 44.7529 24.6353 43.9129 24.4377C38.1317 23.0774 31.8277 22.3959 24.9999 22.3959C18.1722 22.3959 11.8682 23.0774 6.08699 24.4377C5.24698 24.6353 4.4058 24.1146 4.20815 23.2746C4.0105 22.4346 4.53123 21.5934 5.37124 21.3957C11.3956 19.9783 17.9388 19.2709 24.9999 19.2709ZM32.7088 6.77087C34.8397 6.77087 36.7825 7.95199 37.7703 9.81585L37.9442 10.1732L41.0111 17.0738C41.3616 17.8624 41.0064 18.7857 40.2179 19.1362C39.495 19.4575 38.6589 19.1858 38.2546 18.5309L38.1554 18.343L35.0885 11.4424C34.7085 10.5874 33.9033 10.0088 32.9868 9.9107L32.7088 9.89587H17.2911C16.3555 9.89587 15.4997 10.3968 15.0378 11.1944L14.9114 11.4424L11.8444 18.343C11.494 19.1315 10.5706 19.4867 9.78202 19.1362C9.05917 18.8149 8.70051 18.0123 8.91571 17.2733L8.98878 17.0738L12.0557 10.1732C12.9212 8.22595 14.7895 6.93029 16.8939 6.78459L17.2911 6.77087H32.7088Z" fill="#303841" stroke="#EEEEEE"/>
</svg>
