<svg width="20" height="20" viewBox="0 0 20 20" fill="none" xmlns="http://www.w3.org/2000/svg">
<path d="M4.85473 11.5883L4.85486 11.5883C4.88544 11.5986 4.91633 11.6059 4.94725 11.6104L5.00292 11.6185L5.02493 11.6702L5.17738 12.0292L5.08531 12.0682L5.17738 12.0292C5.32498 12.3773 5.52388 12.8482 5.72919 13.3394L5.63897 13.3771L5.7292 13.3394C6.14658 14.3381 6.57123 15.3759 6.66624 15.677C6.77987 16.0366 6.89739 16.2722 7.02015 16.4285C7.0834 16.509 7.15469 16.5769 7.23603 16.6275C7.27695 16.653 7.31976 16.6736 7.36404 16.6888L7.36574 16.6894L7.36573 16.6894L7.36959 16.6907L7.37363 16.6921L7.3736 16.6921C7.61184 16.7821 7.82995 16.745 7.96841 16.6984C8.04227 16.6735 8.10208 16.6435 8.14438 16.6192C8.16616 16.6066 8.18429 16.5951 8.19842 16.5856L8.19922 16.585L8.20301 16.5825L8.20521 16.5811L8.20523 16.5811L10.5604 15.1124L10.6192 15.0757L10.6741 15.1178L13.3946 17.2035L13.3947 17.2035C13.4283 17.2293 13.4651 17.251 13.504 17.268C13.8168 17.4045 14.1148 17.4501 14.3915 17.4123C14.6679 17.3746 14.8873 17.2586 15.0514 17.1273L15.0514 17.1273C15.2124 16.9985 15.3221 16.8537 15.3907 16.7456C15.4256 16.6905 15.4518 16.6418 15.4702 16.6048L4.85473 11.5883ZM4.85473 11.5883L2.21703 10.7003L2.2123 10.6984L2.21198 10.6983L2.20603 10.6958C2.17161 10.6818 2.10988 10.6565 2.08057 10.6426C2.01004 10.609 1.91355 10.5576 1.81233 10.486L1.81232 10.486C1.62559 10.3539 1.33311 10.0883 1.27982 9.66238C1.21414 9.13733 1.60319 8.81339 1.78852 8.68646C1.90073 8.60961 2.01067 8.55409 2.08962 8.51828L2.08967 8.51826C2.1299 8.49999 2.16432 8.48594 2.18992 8.47598C2.20272 8.47101 2.21348 8.467 2.22184 8.46394L2.22219 8.46381L2.22399 8.46315L2.224 8.46316L2.22577 8.46247L16.1539 2.99868L16.1539 2.99872L16.1563 2.99769L16.165 2.99401C16.1652 2.99396 16.1653 2.99391 16.1654 2.99386C16.1775 2.98886 16.1936 2.98233 16.2132 2.97473L16.2132 2.97472M4.85473 11.5883L16.2132 2.97472M15.5962 16.5687L15.5957 16.5701L15.5711 16.5599L15.5034 16.5316L15.5023 16.5342M15.5962 16.5687L18.0149 3.91626L15.5315 16.4374C15.5253 16.4685 15.5163 16.499 15.5046 16.5286L15.5043 16.5285L15.5023 16.5342M15.5962 16.5687L15.5968 16.5674M15.5962 16.5687L15.5968 16.5674M15.5023 16.5342L15.5022 16.5345L15.5022 16.5346M15.5023 16.5342L15.5022 16.5346M15.5022 16.5346L15.4996 16.5407L15.4992 16.5417L15.4924 16.5575C15.4923 16.5578 15.4922 16.558 15.4921 16.5582L15.5022 16.5346ZM16.2132 2.97472C16.2527 2.95941 16.3078 2.93923 16.3736 2.9183C16.5005 2.8779 16.687 2.82826 16.8871 2.81307C17.0742 2.79887 17.357 2.80785 17.6074 2.97093C17.8971 3.15964 18.025 3.47221 18.025 3.81406C18.025 3.84833 18.0216 3.88255 18.015 3.9162L16.2132 2.97472ZM16.5681 3.96346L16.5682 3.96354L16.5696 3.96299L16.6062 4.05603M16.5681 3.96346L16.5682 3.96355C16.568 3.9636 16.5679 3.96365 16.5678 3.9637L16.5756 3.98234L16.6062 4.05603M16.5681 3.96346L16.5643 3.96517L16.5633 3.96561C16.5632 3.96567 16.563 3.96573 16.5629 3.9658C16.5567 3.96843 16.5511 3.97078 16.5455 3.97296L16.5454 3.97301L2.60062 9.44334M16.5681 3.96346L2.60062 9.44334M16.6062 4.05603C16.6104 4.0543 16.618 4.05116 16.6288 4.04702M16.6062 4.05603L16.6048 4.05659L16.6029 4.05744C16.5959 4.06046 16.589 4.06334 16.5819 4.06611L16.6288 4.04702M16.6288 4.04702L16.5928 3.9537C16.5928 3.95372 16.5928 3.95374 16.5927 3.95376C16.6159 3.94476 16.6504 3.9321 16.6919 3.91885L16.692 3.91884C16.7289 3.9071 16.7674 3.8962 16.8057 3.88699L16.9575 3.8505L16.9271 4.00368L14.5184 16.1478L14.5147 16.1666L14.5042 16.1827L14.5039 16.1833M16.6288 4.04702L16.5926 3.95381L14.5039 16.1833M14.0107 5.49482L14.0026 5.49961L14.0107 5.49482ZM14.0107 5.49482C14.017 5.4911 14.0253 5.48632 14.0352 5.48071L14.0107 5.49482ZM15.2305 5.68999C15.1448 5.54148 15.0132 5.45354 14.8852 5.41246C14.6764 5.3455 14.4802 5.40225 14.4078 5.42462L14.4078 5.42462C14.3074 5.45567 14.217 5.4982 14.1594 5.52752C14.1288 5.54311 14.1031 5.5572 14.0844 5.56775L14.0844 5.56775L14.0619 5.58072L14.0616 5.58088L14.0536 5.58566L14.0532 5.58591L5.40581 10.648L5.35339 10.6787L5.30199 10.6463C5.26771 10.6247 5.23019 10.6068 5.1897 10.5931L2.57089 9.71148L2.56504 9.70951L2.56511 9.70933C2.55796 9.70642 2.54645 9.70147 2.53196 9.69457C2.53196 9.69456 2.53195 9.69456 2.53194 9.69455L15.2305 5.68999ZM15.2305 5.68999C15.2731 5.76401 15.296 5.83856 15.3072 5.90749L15.3066 5.90758L15.3094 5.9178C15.3383 6.02353 15.3339 6.12893 15.3109 6.22093C15.2609 6.42018 15.1189 6.58193 14.9754 6.71581L14.9754 6.71582C14.8493 6.83358 13.227 8.39781 11.6284 9.94033C11.0581 10.4906 10.4919 11.0371 9.99985 11.512C9.80382 11.7012 9.61954 11.8791 9.45144 12.0413L9.45142 12.0414L9.06392 12.4155L8.98039 12.4962L9.07254 12.5668L13.9658 16.3183L13.9782 16.3278L13.9929 16.3331C14.1186 16.3781 14.2011 16.3786 14.2494 16.372C14.2495 16.3719 14.2495 16.3719 14.2496 16.3719L14.2359 16.2729M15.2305 5.68999L14.4203 16.1284L14.4194 16.1298M2.60062 9.44334C2.60056 9.44337 2.60049 9.44339 2.60043 9.44342L2.60062 9.44334ZM14.2359 16.2729C14.2725 16.2679 14.3024 16.2538 14.333 16.2294C14.3671 16.202 14.397 16.165 14.4194 16.1298M14.2359 16.2729C14.2052 16.2771 14.1389 16.2791 14.0266 16.239L14.2359 16.2729ZM14.4194 16.1298L14.5033 16.1841L14.5039 16.1833M14.4194 16.1298L14.5039 16.1833M15.5968 16.5674C15.611 16.5316 15.622 16.4946 15.6295 16.4569M15.5968 16.5674L15.6295 16.4569M15.6295 16.4569L18.113 3.93566L15.6295 16.4569ZM9.60663 14.4697L9.72911 14.3933L9.61456 14.3055L8.63831 13.557L8.5048 13.4546L8.47868 13.6208L8.24218 15.1256L8.2082 15.3418L8.39388 15.226L9.60663 14.4697ZM7.74975 12.2247L7.74976 12.2247L7.75139 12.2231L8.72216 11.2859C8.72217 11.2859 8.72217 11.2859 8.72217 11.2859C9.31225 10.7163 10.1017 9.95433 10.8994 9.18467L11.7098 8.40284L11.5899 8.24457L6.15647 11.4252L6.08061 11.4696L6.11492 11.5506L6.14407 11.6193C6.29211 11.9685 6.49176 12.4411 6.69799 12.9345L6.78863 12.8966L6.69799 12.9345C6.85221 13.3035 7.01342 13.6919 7.16021 14.0513L7.29585 14.3835L7.35157 14.0291L7.58744 12.5287L7.48866 12.5132L7.58744 12.5287C7.60655 12.4071 7.66582 12.3021 7.74975 12.2247Z" fill="white" stroke="#303841" stroke-width="0.2"/>
</svg>
