<svg width="30" height="30" viewBox="0 0 30 30" fill="none" xmlns="http://www.w3.org/2000/svg">
<rect width="30" height="30" rx="15" fill="#3A4750"/>
<path d="M14.32 22.24C13.3467 22.24 12.38 22.1133 11.42 21.86C10.46 21.5933 9.64667 21.22 8.98 20.74L10.24 18.26C10.7733 18.6467 11.3933 18.9533 12.1 19.18C12.8067 19.4067 13.52 19.52 14.24 19.52C15.0533 19.52 15.6933 19.36 16.16 19.04C16.6267 18.72 16.86 18.28 16.86 17.72C16.86 17.1867 16.6533 16.7667 16.24 16.46C15.8267 16.1533 15.16 16 14.24 16H12.76V13.86L16.66 9.44L17.02 10.6H9.68V8H19.48V10.1L15.6 14.52L13.96 13.58H14.9C16.62 13.58 17.92 13.9667 18.8 14.74C19.68 15.5133 20.12 16.5067 20.12 17.72C20.12 18.5067 19.9133 19.2467 19.5 19.94C19.0867 20.62 18.4533 21.1733 17.6 21.6C16.7467 22.0267 15.6533 22.24 14.32 22.24Z" fill="white"/>
</svg>
