<svg width="30" height="30" viewBox="0 0 30 30" fill="none" xmlns="http://www.w3.org/2000/svg">
<rect width="30" height="30" rx="15" fill="#3A4750"/>
<path d="M9.66 22V19.9L15.06 14.8C15.4867 14.4133 15.8 14.0667 16 13.76C16.2 13.4533 16.3333 13.1733 16.4 12.92C16.48 12.6667 16.52 12.4333 16.52 12.22C16.52 11.66 16.3267 11.2333 15.94 10.94C15.5667 10.6333 15.0133 10.48 14.28 10.48C13.6933 10.48 13.1467 10.5933 12.64 10.82C12.1467 11.0467 11.7267 11.4 11.38 11.88L9.02 10.36C9.55333 9.56 10.3 8.92667 11.26 8.46C12.22 7.99333 13.3267 7.76 14.58 7.76C15.62 7.76 16.5267 7.93333 17.3 8.28C18.0867 8.61333 18.6933 9.08667 19.12 9.7C19.56 10.3133 19.78 11.0467 19.78 11.9C19.78 12.3533 19.72 12.8067 19.6 13.26C19.4933 13.7 19.2667 14.1667 18.92 14.66C18.5867 15.1533 18.0933 15.7067 17.44 16.32L12.96 20.54L12.34 19.36H20.24V22H9.66Z" fill="white"/>
</svg>
