<svg width="20" height="20" viewBox="0 0 20 20" fill="none" xmlns="http://www.w3.org/2000/svg">
<path d="M6.66675 10.4166L8.75008 12.5L13.3334 7.91663" stroke="white" stroke-linecap="round" stroke-linejoin="round"/>
<path d="M10.0001 18.3333C11.0303 18.3333 11.915 17.7101 12.2977 16.8202C12.433 16.5056 12.8799 16.3205 13.198 16.4473C14.098 16.806 15.1642 16.621 15.8927 15.8925C16.6211 15.164 16.806 14.0979 16.4474 13.198C16.3207 12.8798 16.5057 12.4329 16.8203 12.2976C17.7102 11.9149 18.3334 11.0302 18.3334 9.99996C18.3334 8.96971 17.7102 8.08507 16.8203 7.70231C16.5057 7.56701 16.3207 7.12012 16.4474 6.80201C16.8061 5.90208 16.6212 4.83588 15.8927 4.10741C15.1642 3.37893 14.098 3.19401 13.1981 3.55263C12.8799 3.67941 12.433 3.49429 12.2977 3.17971C11.915 2.28978 11.0303 1.66663 10.0001 1.66663C8.96983 1.66663 8.0852 2.28977 7.70243 3.1797C7.56713 3.49428 7.12024 3.67938 6.80213 3.55262C5.9022 3.19399 4.83601 3.37891 4.10753 4.10738C3.37906 4.83586 3.19413 5.90205 3.55276 6.80198C3.67953 7.1201 3.49441 7.56701 3.17983 7.70231C2.2899 8.08507 1.66675 8.96971 1.66675 9.99996C1.66675 11.0302 2.28989 11.9149 3.17982 12.2976C3.4944 12.4329 3.67951 12.8798 3.55274 13.1979C3.19411 14.0979 3.37903 15.164 4.10751 15.8925C4.83598 16.621 5.90217 16.8059 6.80211 16.4473C7.12021 16.3205 7.56713 16.5056 7.70243 16.8202C8.08519 17.7101 8.96983 18.3333 10.0001 18.3333Z" stroke="white" stroke-linecap="round" stroke-linejoin="round"/>
</svg>
